<?xml version="1.0" encoding="UTF-8"?>
<svg id="Layer_1" data-name="Layer 1" xmlns="http://www.w3.org/2000/svg" viewBox="0 0 500 500">
  <path d="M415.84,16c37.59,0,68.16,30.58,68.16,68.16V415.84c0,37.59-30.58,68.16-68.16,68.16H84.16c-37.59,0-68.16-30.58-68.16-68.16V84.16c0-37.59,30.58-68.16,68.16-68.16H415.84m0-16H84.16C37.68,0,0,37.68,0,84.16V415.84c0,46.48,37.68,84.16,84.16,84.16H415.84c46.48,0,84.16-37.68,84.16-84.16V84.16C500,37.68,462.32,0,415.84,0h0Z"/>
  <path d="M250.25,125c33.32,0,64.65,12.98,88.21,36.54,23.56,23.56,36.54,54.89,36.54,88.21s-12.98,64.65-36.54,88.21c-23.56,23.56-54.89,36.54-88.21,36.54s-64.65-12.98-88.21-36.54c-23.56-23.56-36.54-54.89-36.54-88.21s12.98-64.65,36.54-88.21c23.56-23.56,54.89-36.54,88.21-36.54m0-16c-77.73,0-140.75,63.02-140.75,140.75s63.02,140.75,140.75,140.75,140.75-63.02,140.75-140.75-63.02-140.75-140.75-140.75h0Z"/>
  <g>
    <circle cx="391" cy="90" r="39.5"/>
    <path d="M391,51c21.5,0,39,17.5,39,39s-17.5,39-39,39-39-17.5-39-39,17.5-39,39-39m0-1c-22.09,0-40,17.91-40,40s17.91,40,40,40,40-17.91,40-40-17.91-40-40-40h0Z"/>
  </g>
</svg>